<svg xmlns="http://www.w3.org/2000/svg" xml:space="preserve" fill="hsl(216, 78%, 58%)" style="fill-rule:evenodd;clip-rule:evenodd;stroke-linejoin:round;stroke-miterlimit:2" viewBox="0 0 128 112">
    <path d="M79.569 54.535c4.201-14.648 8.399-29.293 12.835-44.143.249-.583.834-.707 2.03 0 2.62 2.03 4.011 3.384 4.06 4-1.396 9.373-.663 17.879 1.015 26 2.555-13.785 6.788-26.323 12.179-38 1.385 1.18 3.057 2.817 5.075 5-6.808 16.319-11.273 34.009-15.224 52 .086 1.694 2.03 4 1.015 5-2.49-1.998-5.075-4-7.105-5-1.332-6.31-2.4-14.589-3.045-26-3.566 11.716-6.518 23.59-9.135 34-2.046 1-4.216-.138-5.091 0-.661.105-1.437.073-1.819-.238-2.752-.784-5.237-.93-5.326-1.722l1.015-9c-1.815 5.702-3.9 10.106-6.09 14-3.443 5.109-7.85 8.149-14.21 7-6.972-1.23-6.585-7.714-5.075-15 3.727-13.564 7.845-26.075 12.18-38 .815-1.444 1.497-1.824 2.03-1 .775 1.026 1.797 1.324 4.06 4-1.015 4-5.777 20.737-9.135 32-1.706 5.014-2.03 10-1.501 13 1.772-1.924 4.212-4.679 7.591-11l15.225-43c.44-1.46 1.086-2.23 2.029-2 2.093.924 4.325 2.223 7.105 5-2.73 13.021-5.186 24.955-6.688 33.103ZM50.714 77.426l-3.01 2.966c-10.494-3.832-20.603-7.571-29.435-11l-1.014 2c-4.262 18.508-5.195 26.8-6.09 37 0 0 2.03 4.31 0 3-2.726-1.759-8.18-6-8.12-7 1.428-23.781 5.997-48.441 13.195-72l-8.12 7c-1.835 1.034-5.125-2.997-8.12-6 1.015-1 15.225-16 44.659-31 13.298-6.777 22.464 1.669 15.224 15-5.888 10.844-18.325 31.192-36.539 48 17.318 7.491 25.495 11.213 27.37 12.034Zm-23.31-53.034c.428.032-4.668 14.311-8.12 32 22.33-22 31.465-40 34.509-48-6.357 2.445-28.628 15.834-26.389 16Zm-1.015 77.231c11.732-12.169 84.456-41.1 101.497-38 0 0 .256.706 0 .769-8.119 2-2.282 2.87-8.119 4.231-32.061 7.473-58.271 21.568-84.243 38-.849.941-2.03 1.769-2.03 0 0 0-7.105-4.231-7.105-5Z"/>
    <circle cx="119" cy="54" r="7"/>
</svg>