<svg xmlns="http://www.w3.org/2000/svg" xml:space="preserve" style="fill-rule:evenodd;clip-rule:evenodd;stroke-linejoin:round;stroke-miterlimit:2" viewBox="0 0 48 48"><path d="M36 24c-1.2 0-2 .8-2 2v12c0 1.2-.8 2-2 2H10c-1.2 0-2-.8-2-2V16c0-1.2.8-2 2-2h12c1.2 0 2-.8 2-2s-.8-2-2-2H10c-3.4 0-6 2.6-6 6v22c0 3.4 2.6 6 6 6h22c3.4 0 6-2.6 6-6V26c0-1.2-.8-2-2-2Z" style="fill:#4083e7;fill-rule:nonzero"/><path d="M43.8 5.2c-.2-.4-.6-.8-1-1-.2-.2-.6-.2-.8-.2H30c-1.2 0-2 .8-2 2s.8 2 2 2h7.2L18.6 26.6c-.8.8-.8 2 0 2.8.4.4.8.6 1.4.6.6 0 1-.2 1.4-.6L40 10.8V18c0 1.2.8 2 2 2s2-.8 2-2V6c0-.2 0-.6-.2-.8Z" style="fill:#4083e7;fill-rule:nonzero"/></svg>